<svg id="Layer_1" data-name="Layer 1" xmlns="http://www.w3.org/2000/svg" width="10.58mm" height="10.58mm" viewBox="0 0 30 30"><path d="M15,30A15,15,0,1,1,30,15,15,15,0,0,1,15,30ZM27.66,17.06a17.56,17.56,0,0,0-8-.56,65.46,65.46,0,0,1,2.53,9.09A12.72,12.72,0,0,0,27.66,17.06ZM20,26.81a54.92,54.92,0,0,0-2.72-9.75h-.09c-7.22,2.53-9.85,7.5-10,8A12.72,12.72,0,0,0,15,27.75a11,11,0,0,0,5-.94ZM5.44,23.62c.28-.46,3.84-6.28,10.4-8.43.19-.1.38-.1.47-.19a14.82,14.82,0,0,0-1-2.16A44,44,0,0,1,2.16,14.62V15a13.44,13.44,0,0,0,3.28,8.62Zm-3-11.25a49,49,0,0,0,11.81-1.59A85.21,85.21,0,0,0,9.47,3.37a13.46,13.46,0,0,0-7,9ZM12,2.53A61.55,61.55,0,0,1,16.78,10a15.15,15.15,0,0,0,6.75-4.59A12.45,12.45,0,0,0,15,2.25,15.35,15.35,0,0,0,12,2.53ZM24.94,6.94A17.67,17.67,0,0,1,17.81,12c.28.66.56,1.22.85,1.87.09.19.18.47.28.66a29,29,0,0,1,8.9.38,13.11,13.11,0,0,0-2.9-8Z" fill="#f2ece9"/></svg>