<svg id="Layer_1" data-name="Layer 1" xmlns="http://www.w3.org/2000/svg" width="10.58mm" height="10.58mm" viewBox="0 0 30 30"><g id="Layer_2" data-name="Layer 2"><g id="Layer_1-2" data-name="Layer 1-2"><path d="M15,.34a15.05,15.05,0,0,0-4.79,29.31c.73.09,1-.37,1-.74V26.33c-4.15.92-5.07-2-5.07-2A3.93,3.93,0,0,0,4.5,22.09c-1.38-.92.1-.92.1-.92a3.12,3.12,0,0,1,2.3,1.56A3.18,3.18,0,0,0,11.23,24h0a3.42,3.42,0,0,1,.92-2c-3.32-.37-6.82-1.66-6.82-7.38a6.07,6.07,0,0,1,1.57-4,5.87,5.87,0,0,1,.18-4s1.29-.37,4.15,1.56a15.12,15.12,0,0,1,7.56,0c2.85-1.93,4.14-1.56,4.14-1.56a5.33,5.33,0,0,1,.19,4,6.07,6.07,0,0,1,1.57,4c0,5.81-3.51,7-6.82,7.38a3.49,3.49,0,0,1,1,2.76v4.15c0,.46.28.83,1,.74A15,15,0,0,0,29.2,10.57,15.37,15.37,0,0,0,15,.34Z" fill="#f2ece9" fill-rule="evenodd"/></g></g></svg>