<svg xmlns="http://www.w3.org/2000/svg" width="511.46" height="165.68" viewBox="0 0 511.46 165.68"><g id="Layer_2" data-name="Layer 2"><g id="Layer_1-2" data-name="Layer 1"><path d="M347.3,165.68c-.66-1.75-1.42-3.41-1.9-5.14-3.4-12.08-3.65-24.43-3-36.84a3.23,3.23,0,0,0-1.81-3.5,11.29,11.29,0,0,1-5.73-6.76c-.81-2.9-.12-5.41,2.35-7.1,3.14-2.15,6.38-4.14,9.7-6a13.26,13.26,0,0,0,6.27-6.65c1.7-4.29,3.34-8.6,5.1-13.16-4.13,0-7.68.34-11.14-.08-4.35-.54-8.62-1.76-12.95-2.54a18.6,18.6,0,0,0-5.05-.21q-9.56.94-19.06,2.16a21,21,0,0,0-5.2,1.41A35.75,35.75,0,0,1,288.1,84a21.9,21.9,0,0,1-8.73-2.8c-4.41-2.56-4.15-8.12.56-10,7.47-2.9,14.14-7.76,22.24-9.1a1.47,1.47,0,0,0,.49-.19c9.57-5.66,20.28-4.82,30.75-5.48a219.69,219.69,0,0,0,50.69-9.39c11.09-3.4,22.17-6.81,33.37-9.81,3.6-1,7.55-.91,11.33-.79a26.25,26.25,0,0,0,14.91-3.59C448.43,30,454,30,459,28.25c9.8-3.37,19.42-7.28,29.11-11,.78-.29,1.58-.49,2.37-.73l.28.61c-.29.25-.53.61-.87.74-10.25,3.9-20.37,8.26-30.83,11.49-6.44,2-13,3.39-19,6.57a13.54,13.54,0,0,1-7,1.57c-10.47-.86-20.19,2.15-30,5.11-15.39,4.66-30.68,9.78-46.62,12.36a220.91,220.91,0,0,1-38.78,3.25,14,14,0,0,0-4.53.88C307.57,61,302,62.74,296.52,65c-5.68,2.3-11.21,5-16.69,7.73a4,4,0,0,0-.17,7.15,18.83,18.83,0,0,0,8.14,2.92c6.89.42,13.63-.65,19.75-4.23.45-.26,1.18,0,1.77,0,4.41-.26,8.82-.44,13.21-.86a61.23,61.23,0,0,0,6.5-1.24c-.33-3.25-.63-6.26-.93-9.27l.83-.05c0,.76,0,1.52,0,2.28-.1,5,.51,5.67,5.13,7.21a55.18,55.18,0,0,0,18.63,2.91c.87,0,1.73-.09,2.59-.18a5.53,5.53,0,0,0,1.09-.44l-6-7.57.54-.54a15,15,0,0,1,1.89,1.65c2.8,3.42,5.44,7,8.32,10.3,3.81,4.4,4.32,4.4,9.55,1.84a28.39,28.39,0,0,0,10.47-8.71c2.59-3.47,5.23-6.91,8.06-10.17a12.35,12.35,0,0,1,7-4.28c-.3.7-.35,1.12-.55,1.21-4.64,2.06-7.74,5.82-10.41,9.89C380.48,79.74,374.33,85.08,366,88a29.26,29.26,0,0,0-11,7.2c-2.69,2.68-5.73,5-8.66,7.5,6.1.46,9.23,2,10.4,5.3a5.37,5.37,0,0,1-.61-.43c-.12-.12-.18-.3-.3-.42-3.93-4-6.93-4.39-11.76-1.63-1.27.73-2.52,1.51-3.78,2.27l-.34-.41,5.24-3.75-.47-.66c-2.95,1.71-6.36,3-8.17,6-.83,1.37-.64,4,.15,5.58a11.57,11.57,0,0,0,9,6.38c9.12,1.2,17-1,24.22-7.26,5.26-4.63,11.54-8.18,17.61-11.79,3.7-2.2,8.06-2,12.18-1.1,14.42,3.27,27.22-.5,39-8.75a35.17,35.17,0,0,1,6.29-3.72,59,59,0,0,1-19.55,12.19c-7.43,2.8-15.12,3.35-23.27,2.67l9.72,9.11-.21.32a7.85,7.85,0,0,1-1.32-.77c-2.26-2-4.48-4.08-6.75-6.08-1.51-1.33-3-3.52-4.63-3.67-3.52-.32-7.67-.6-10.62.93-8.17,4.26-16.2,9-22.6,15.87a8.54,8.54,0,0,0-2.51,6,25.39,25.39,0,0,1-1,6.65,45.67,45.67,0,0,0-1.49,15.63c.24,4.06-.5,8.22-1.12,12.29-.32,2.13.82,2.66,2.3,3,2.94.67,7.89-1.5,8.62-4.42a106.91,106.91,0,0,0,2-13.52c.05-.38-.91-1.21-1.47-1.28a36,36,0,0,0-4.53-.07v-.63h6.52c1.38-4.53,2.79-9.13,4.25-13.91l-2.28-1.11c4.07.94,5.72-2.59,8.08-4.44s4.21-4.33,6.37-6.63c-2.36-2.86-5.6-5.19-6.45-9.06l.63-.41c.49.8.94,1.64,1.48,2.41,3.1,4.38,6.69,8.14,12.05,9.77a27.06,27.06,0,0,1,6.25,2.51,8.94,8.94,0,0,0,8.91.35c10.52-4.83,21-9.82,31.45-14.72A45.66,45.66,0,0,0,460,94.48c1.54-1.88,3.38-3.5,4.89-5.39,5.89-7.37,14.13-9.76,22.93-10.51,7.24-.61,14.53-.54,21.79-.74a8.84,8.84,0,0,1,1.87.37l0,.7a20,20,0,0,1-2.18.11c-10-.45-19.91,0-29.69,2.3a22.9,22.9,0,0,0-12,6.84c-2.75,3-5.61,5.91-8.28,9a41.87,41.87,0,0,1-13.14,10.39c-8.93,4.36-17.74,9-26.74,13.18-3.88,1.82-8.11,2.88-12.65,4.44-1.23,5-2.69,10.52-3.91,16.12a16.78,16.78,0,0,0-.1,5.39,15.59,15.59,0,0,1-2.29,9.93c-2.76,4.71-7.25,4.84-10.34.32-2.27-3.33-2.81-7.14-3.18-11.08-.85-9.12,0-18,3.5-26.48a6.36,6.36,0,0,0,.12-1.64c-4,3.7-7.83,7.14-11.5,10.77-.84.84-1.14,2.29-1.5,3.51s-.2,2.71-.79,3.8c-3.05,5.61-2.83,11.81-3.53,17.86s-3.26,8.88-8.29,9.93c-2.32.49-4.49.33-6.1-1.38l-6,3.48m3-73.13,7.58-5.17-4.54-5.11-3.54,9.84-.11.66ZM363,120.16A36.31,36.31,0,0,1,343.62,122c0,3.55.32,6.86-.05,10.1-1.15,10,1.34,19.59,3.24,29.26.5,2.54,1.9,3.18,4.23,3,4.67-.46,7.85-3,8.24-7.83.46-5.81.11-11.69.11-17.87h-6.23v-.5l6.7-.32C360.85,132.16,361.86,126.4,363,120.16Zm38,21c1.34-4.16,2.72-8.39,4.05-12.64a6.53,6.53,0,0,0,.42-2.8,3.32,3.32,0,0,0-1.26-2.33c-3.9-1.76-7.89-3.3-11.91-4.94-.33.79-.56,1.34-.8,1.89-4.12,9.48-4,19.39-2.75,29.33a17,17,0,0,0,3,7c2.18,3.19,5.16,3,7.34-.26a15.3,15.3,0,0,0,2.39-10.64c-.38-3.47-.91-4.26-4.25-5.08l-1.13-.28.15-.53Z" fill="#234a6c"/><path d="M206,100.68c0-1,.26-2.26-.17-3.09-4.45-8.5-10.54-15.41-19.5-19.36a31.27,31.27,0,0,1-11.37-8.75c-4.75-5.62-9.87-10.92-14.83-16.36a10.14,10.14,0,0,1-.83-1.16l7.22,6.87L185.77,46l.6.8-4,3c4,1.88,13.81,2.51,18.94,1.21l-1-3.59c.55.42.91.56.94.74.56,3.34,3.08,4.86,5.88,5.53,5.86,1.41,11.8,2.51,17.75,3.5,1.3.22,2.76-.53,4-.8,3.24,7.17,10.22,11.06,16,16.24l2.17-1.09.29.38-1.95,1.72A25.12,25.12,0,0,0,258.62,88c3.12,1.52,6.06.66,8.24-2L262,78.53l1.63-.16c-.07-.19-.11-.44-.16-.44-1.54,0-1.82-1.14-2.25-2.34-.89-2.49-1.6-5.17-3.07-7.29-4.87-7-10-13.87-15.1-20.78a18.87,18.87,0,0,0-9.48-6.85C223.73,37.3,214,33.8,204.32,30a54.25,54.25,0,0,1-11.15-6.39c-2.85-2-5.68-3.49-9.2-3.68-6.83-.36-13.65-.82-20.48-1.26a3.25,3.25,0,0,1-2.25-.94,3.59,3.59,0,0,1,1.12-.3c7.61.43,15.22.85,22.82,1.35a14.15,14.15,0,0,1,8.22,3.48c1.92,1.59,4.07,2.89,6.12,4.32l1,.25-.2-.75c-2.44-2.33-4.62-5-7.38-6.87a19.61,19.61,0,0,0-7.68-2.68c-10.17-1.65-20.45-2.67-30.55-4.61-11.3-2.16-22.44-5.14-33.68-7.62A139.45,139.45,0,0,0,88.28,1.4,31.53,31.53,0,0,0,73.15,5.61C55.1,15.89,35.64,22.9,16.48,30.63c-4.65,1.87-9.24,3.91-13.86,5.86-.74.31-1.51.52-2.27.79L0,36.54a24.09,24.09,0,0,1,2.44-1.33C15.25,30,28.14,24.93,40.87,19.51c8.58-3.66,17.33-7.19,25.3-12C78.25.35,91.05-1.12,104.47.72a271.92,271.92,0,0,1,28.84,5.13,396.88,396.88,0,0,0,47.48,8.64,48.63,48.63,0,0,1,10.69,2.59,14.19,14.19,0,0,1,5.78,4.06c5.29,6.39,12.07,10,19.9,12.33,6.12,1.8,12,4.4,18.06,6.48a15.52,15.52,0,0,1,7.69,5.49c5.67,7.64,11.48,15.19,16.83,23,3.63,5.33,6.58,11.12,9.68,16.44-.46.6-1,1.38-1.58,2.07a8.23,8.23,0,0,1-10.14,2c-5.31-2.72-9.72-6.51-12.1-12-1.54-3.57-4.15-5.83-7.7-8.28.39,1.6.6,2.71.93,3.78A150.53,150.53,0,0,1,244.59,98c.42,3.29,2,6.43,2.91,9.66.42,1.44,1.41,3.76.86,4.25a13.27,13.27,0,0,1-6.13,3.26c-1.94.34-4.12-.73-6.4-1.23-3.25,3.84-11.67,2-13.72-3.59a29.34,29.34,0,0,1-1.91-8c-.27-4.13-2.23-7.32-4.41-10.58a74.93,74.93,0,0,1-5.66-9.55c-2.81-6-4-7.68-10-12.33.26,2.63.51,5,.74,7.35.19,2,.7,4,.45,5.94-.51,3.8.75,6.79,3.07,9.68A19.31,19.31,0,0,1,208.66,105c.1,5.17-5.27,9.58-10.19,7.89a50.65,50.65,0,0,1-5.63-2.7,35.4,35.4,0,0,1-1.65,3.71c-2.43,4.25-6.9,4.38-9.54.24-2.5-3.93-2.4-8.21-1.27-12.54.31-1.2.57-2.13-.76-3.11C166.46,88.72,152.31,81.11,136.05,78c-3.4-.65-6.86-1.06-10.18-2-8.29-2.29-14.1-7.82-18.65-14.87-1-1.59-2-3.18-3.21-5A108.68,108.68,0,0,0,81.1,68.84q-25.24,19-50.38,38c-.83.62-1.72,1.19-2.58,1.78l-.49-.65a10.85,10.85,0,0,1,1.23-1.3c17.75-13.42,35.36-27,53.35-40.12,6.38-4.64,13.7-8,21.22-12.25-3.5-4.39-7-9.21-10.94-13.59C89.9,37.86,86,37.29,82.19,37.29c-4.16,0-8.31.23-12.47.33a3.68,3.68,0,0,1-2.42-.72,3.42,3.42,0,0,1,1.24-.53c5.28-.09,10.57-.28,15.84-.13a13.7,13.7,0,0,1,11,5.55c4.09,5.57,8.16,11.19,11.77,17.08,6.3,10.28,15.06,16,27.17,17.72,18.73,2.71,34.8,11.62,49.22,23.63,2.39,2,4.64,4.17,7,6.23a22.53,22.53,0,0,0,1.93,1.39l.57-.47a18,18,0,0,1-2-3.56,8.48,8.48,0,0,1,0-4c0,5.51,4.09,8.34,7.45,11.53,1.43,1.36,3.42,1.19,5,0,2.17-1.63,4.42-3.36,3.84-6.52a16.71,16.71,0,0,0-1.65-3.71Zm-12.3,8.13.72.58-.32-1-1-.82-.35.45Zm73.38-24.46.74,0-.37-.45-3.12-4.68-.61-.47.1.83C264.88,81.2,266,82.78,267.05,84.35ZM231.9,90.1l.49.44c-.74,1.2-2.13,2.4-2.13,3.6,0,6.43,1.21,12.7,5.9,17.45,1.44,1.47,4.1,2.17,6.28,2.37,2.53.24,3.19-1.42,2.49-3.89a79,79,0,0,1-1.81-8.78c-.21-1.32.09-2.72,0-4.07-.74-9.92-4.17-19.22-6.61-28.75a4.54,4.54,0,0,0-1-1.78c-2.1-2.41-4.19-4.83-6.43-7.1a4.07,4.07,0,0,0-2.57-1.06c-8.38-.26-16.55-1.27-23.93-5.69a10.54,10.54,0,0,0-2.15-.54A26.12,26.12,0,0,0,202.55,55c4,3.81,8,7.6,12.08,11.37,2.49,2.31,5.1,4.18,8.55,1.67,0,0,.15.08.52.29l-3.53,2c2.33,7.76,2.88,16.28,9.77,22.4Zm-8.8,3.62c-.86,1.65-2.29,3.11-2.19,4.45a58.24,58.24,0,0,0,1.9,10.44,8,8,0,0,0,9.92,5.63c1.9-.48,2.44-1.33,1.19-3.12a25.26,25.26,0,0,1-4.65-13,12.06,12.06,0,0,0-3.1-7.72,16.38,16.38,0,0,1-3-5.35c-1.22-3.49-2.16-7.1-3.07-10.69a8.88,8.88,0,0,0-3.12-4.8c-5.68-4.91-11.09-10.11-16.61-15.2-.55-.51-1.12-1.36-1.71-1.38-3.21-.14-6.42-.07-9.64-.07l-.58.65c5.52,6.27,10.84,12.72,16.62,18.74a35,35,0,0,1,6,8.61c2.66,5.18,5.82,10.1,8.76,15.12ZM170.35,58c2.47,1.86,4.63,3.76,7,5.23,3.87,2.36,6.5,5.33,6.77,10.07.11,1.91,1.32,3,3,4.11,4.09,2.53,7.92,5.48,11.85,8.26.3.21.62.38,1.41.86-.58-6.43-1.1-12.36-1.67-18.28-.05-.45-.49-.88-.8-1.28-3.42-4.45-6.87-8.89-10.28-13.35-1.32-1.72-6.91-2.78-8.69-1.57C176.23,53.91,173.46,55.83,170.35,58Zm11.59,42.64c-1.07,3.52-1.47,6.79-.47,10.14s3,5.19,5.16,5.07,4.15-2.53,4.69-5.58a2.28,2.28,0,0,0-.45-1.79C188,105.84,185.07,103.33,181.94,100.6Zm1-25.28c-.37-6.29-.77-7-4.57-9.79-2.73-2-5.37-4.05-8.1-6a8,8,0,0,0-2.08-.75l-.45.83C173.05,64.44,176.73,70.84,183,75.32Zm63.67,36,.79-.29-3.16-8.58A14,14,0,0,0,246.64,111.36Z" fill="#234a6c"/><path d="M472.68,78.69c-6-5.64-12.77-10.65-16.71-18.1Z" fill="#234a6c"/><path d="M337.93,110c1.63,3.13,3.77,5.75,7.28,6.7,3.93,1.06,6-2.24,8.79-4.14-1.19,2.83-5.49,5.58-7.95,5.21C342.07,117.16,338.21,113.6,337.93,110Z" fill="#234a6c"/><path d="M183.09,95.78l6.72-6.88C190.12,91.08,187.07,94.47,183.09,95.78Z" fill="#234a6c"/><path d="M205.66,101,203,98.82l.39-.47,2.6,2.33Z" fill="#234a6c"/><path d="M340.34,107.75l-1.09.32-.14-.36.89-.37Z" fill="#234a6c"/></g></g></svg>