<svg id="Layer_1" data-name="Layer 1" xmlns="http://www.w3.org/2000/svg" width="10.58mm" height="10.58mm" viewBox="0 0 30 30"><path d="M13.19,13.37l-.36-1.18c-.13-.4-.24-.77-.34-1.14s-.19-.69-.27-1h0c-.11.55-.25,1.1-.42,1.66s-.38,1.25-.58,1.89-.36,1.26-.55,1.8h3.17c-.07-.27-.17-.59-.28-.93S13.3,13.76,13.19,13.37Z" fill="#f2ece9"/><path d="M24.7,0H5.35A5.37,5.37,0,0,0,.05,5.45v19.1A5.37,5.37,0,0,0,5.35,30H24.7A5.37,5.37,0,0,0,30,24.55V5.45A5.37,5.37,0,0,0,24.7,0ZM18.39,21.19h-2.6a.18.18,0,0,1-.2-.14l-1-3.05H9.92L9,21a.2.2,0,0,1-.23.18H6.39c-.14,0-.18-.07-.14-.23l4-11.88.13-.43a4.57,4.57,0,0,0,.07-.83.13.13,0,0,1,.1-.14H13.8c.1,0,.15,0,.16.1L18.52,21C18.56,21.13,18.52,21.19,18.39,21.19ZM22.64,21c0,.14-.05.21-.16.21H20c-.13,0-.19-.08-.19-.21V11.13c0-.13.05-.18.16-.18h2.48c.11,0,.16.06.16.18ZM22.38,9.42a1.44,1.44,0,0,1-1.14.45,1.52,1.52,0,0,1-1.11-.45,1.69,1.69,0,0,1-.43-1.18,1.55,1.55,0,0,1,.45-1.14,1.6,1.6,0,0,1,1.11-.45,1.49,1.49,0,0,1,1.14.45,1.68,1.68,0,0,1,.41,1.14A1.69,1.69,0,0,1,22.38,9.42Z" fill="#f2ece9"/></svg>