<svg id="Layer_1" data-name="Layer 1" xmlns="http://www.w3.org/2000/svg" width="10.58mm" height="10.58mm" viewBox="0 0 30 30"><path d="M0,2V27.86a2,2,0,0,0,2,2H27.87a2,2,0,0,0,2-2V2a2,2,0,0,0-2-2H2A2,2,0,0,0,0,2ZM16.28,23.3c0,2.91-1.7,4.23-4.19,4.23A4.35,4.35,0,0,1,7.88,25l2.28-1.39C10.6,24.37,11,25,12,25s1.5-.36,1.5-1.76V13.72h2.81V23.3Zm6.63,4.24a5.38,5.38,0,0,1-5.11-2.87l2.28-1.33a3.06,3.06,0,0,0,2.77,1.71c1.16,0,1.9-.58,1.9-1.39,0-1-.76-1.3-2-1.86l-.7-.3c-2-.87-3.37-1.95-3.37-4.23,0-2.11,1.6-3.71,4.11-3.71a4.14,4.14,0,0,1,4,2.25l-2.19,1.4a1.9,1.9,0,0,0-1.8-1.2,1.22,1.22,0,0,0-1.34,1.2c0,.84.52,1.19,1.72,1.71l.7.3c2.39,1,3.74,2.06,3.74,4.41C27.57,26.15,25.58,27.54,22.91,27.54Z" fill="#f2ece9"/></svg>