<svg id="Layer_1" data-name="Layer 1" xmlns="http://www.w3.org/2000/svg" width="10.58mm" height="10.58mm" viewBox="0 0 30 30"><g id="Layer_2" data-name="Layer 2"><g id="Group_1280" data-name="Group 1280"><path id="Path_2520" data-name="Path 2520" d="M25.57,25.56H21.12V18.62c0-1.66,0-3.8-2.31-3.8s-2.67,1.81-2.67,3.68v7.06H11.69V11.25H16V13.2H16a4.66,4.66,0,0,1,4.21-2.31c4.51,0,5.34,3,5.34,6.81ZM6.68,9.29A2.58,2.58,0,1,1,9.26,6.71,2.58,2.58,0,0,1,6.68,9.29h0M8.9,25.56H4.45V11.25H8.9ZM27.78,0H2.21A2.19,2.19,0,0,0,0,2.16V27.84A2.17,2.17,0,0,0,2.21,30H27.78A2.19,2.19,0,0,0,30,27.84h0V2.16A2.2,2.2,0,0,0,27.78,0" fill="#f2ece9"/></g></g></svg>