<svg xmlns="http://www.w3.org/2000/svg" width="22.91" height="22.91" viewBox="0 0 22.91 22.91"><g id="Layer_2" data-name="Layer 2"><g id="Layer_1-2" data-name="Layer 1"><circle cx="11.46" cy="11.46" r="11.46" fill="#234a6c"/><path d="M6.41,7.94c0,.06,0,.09-.14.09a1.52,1.52,0,0,1-1.44-1.5c0-1.29,1.29-2.19,3.11-2.19a4.84,4.84,0,0,1,2.75.91,2.14,2.14,0,0,1,.51-.49.48.48,0,0,1,.28-.11.12.12,0,0,1,.12.12s0,.06-.12.1a2.25,2.25,0,0,0-.58.54l.31.22s.06,0,.06.08,0,.09-.08.09-.06,0-.12-.06l-.27-.17A15.11,15.11,0,0,0,9.4,8.79h.18c.87,0,2-.63,3.06-2.07C13.93,5,14.65,5,14.93,5s.38.11.38.19a.08.08,0,0,1-.05.06A.47.47,0,0,0,15,5.11c-.51,0-1,.27-2.16,1.81C11.76,8.31,10.78,9,9.66,9c1.23.48,1.28,3.31,2.94,3.31a1.67,1.67,0,0,0,1.06-.39s.06,0,.06,0a1.67,1.67,0,0,1-1.18.58c-1.8,0-2-3-3.07-3.44L9.31,9c-.78,2.12-1.71,4.24-3.71,4.24a1.44,1.44,0,0,1-1.51-1.09s0-.08.06-.08.06,0,.08.08A1.41,1.41,0,0,0,5.57,13C7.4,13,8.28,11,9,9H9c-.55,0-.75-.12-.75-.3a.22.22,0,0,1,.24-.22c.29,0,.4.17.66.26a16.21,16.21,0,0,1,1.44-3.31,4.79,4.79,0,0,0-2.62-.83c-1.57,0-2.8.78-2.8,1.94A1.34,1.34,0,0,0,6.32,7.88C6.39,7.89,6.41,7.91,6.41,7.94Z" fill="#f2ece9"/><path d="M18,11.1c0-1.09-1-1.79-3-1.79-2.8,0-5.28,1.51-5.28,2.89a.88.88,0,0,0,.95,1,1.9,1.9,0,0,0,.67-.16.07.07,0,0,1,.07.07,1,1,0,0,1-.84.33,1.13,1.13,0,0,1-1.19-1.19C9.38,10.57,12,9,15,9c2.22,0,3.37.86,3.37,2.11,0,1.84-1.93,3-3.55,3,1.35.7,1.17,3.31,2.95,3.31a1.57,1.57,0,0,0,1-.38.06.06,0,0,1,.06.06,1.58,1.58,0,0,1-1.22.57c-2,0-1.74-2.72-3.17-3.51-.63,0-1.13-.13-1.13-.34a.26.26,0,0,1,.28-.25c.41,0,.81.27,1,.27C16.12,13.88,18,12.87,18,11.1Zm-2.59-.59c0,.06-.06.11-.2.21-.87.63-3.58,3.92-3.58,5.63a.1.1,0,0,1-.11.09.26.26,0,0,1-.24-.23c0-1.61,2.62-4.92,3.65-5.67.14-.1.23-.18.34-.18A.15.15,0,0,1,15.43,10.51Z" fill="#f2ece9"/></g></g></svg>