<svg id="Layer_1" data-name="Layer 1" xmlns="http://www.w3.org/2000/svg" width="10.58mm" height="10.58mm" viewBox="0 0 30 30"><path d="M24.69,0H5.31A5.38,5.38,0,0,0,0,5.45v19.1A5.38,5.38,0,0,0,5.31,30H24.69A5.38,5.38,0,0,0,30,24.55V5.45A5.38,5.38,0,0,0,24.69,0ZM15.45,14.94a4.36,4.36,0,0,1-2,1.56,8,8,0,0,1-2.82.44,4.74,4.74,0,0,1-.62,0H9.46V21a.16.16,0,0,1-.14.18H6.9c-.1,0-.15-.06-.15-.17V7.85c0-.09,0-.14.12-.14s.42,0,.7,0l.95,0c.34,0,.7,0,1.09,0h1.14a7.15,7.15,0,0,1,2.57.4A4.3,4.3,0,0,1,15,9.08a4.09,4.09,0,0,1,.91,1.46,5,5,0,0,1,.29,1.67A4.68,4.68,0,0,1,15.45,14.94Zm8.86,5a3.05,3.05,0,0,1-1.4,1.14,5.57,5.57,0,0,1-2.26.41,8.75,8.75,0,0,1-1.7-.16,5.17,5.17,0,0,1-1.28-.41.25.25,0,0,1-.13-.25V18.42a.12.12,0,0,1,.05-.11s.07,0,.11,0a5.22,5.22,0,0,0,1.55.63,5.54,5.54,0,0,0,1.47.19,2.25,2.25,0,0,0,1-.18.6.6,0,0,0,.34-.54.68.68,0,0,0-.3-.51,4.92,4.92,0,0,0-1.23-.6,7.48,7.48,0,0,1-1.77-.93,3.23,3.23,0,0,1-.95-1.09,2.81,2.81,0,0,1-.29-1.3,3,3,0,0,1,1.74-2.73,4.7,4.7,0,0,1,2.21-.45,11.54,11.54,0,0,1,1.55.11,4.32,4.32,0,0,1,1.08.3.19.19,0,0,1,.12.11.9.9,0,0,1,0,.16v2.09a.17.17,0,0,1-.07.13.39.39,0,0,1-.22,0,4.33,4.33,0,0,0-1.2-.44,6.62,6.62,0,0,0-1.4-.17,2.7,2.7,0,0,0-.75.09.67.67,0,0,0-.39.26.7.7,0,0,0-.1.34.55.55,0,0,0,.13.34,1.4,1.4,0,0,0,.42.34c.29.16.59.3.89.43a9.2,9.2,0,0,1,1.92.93,2.91,2.91,0,0,1,1,1.07,2.86,2.86,0,0,1,.29,1.32A3,3,0,0,1,24.31,19.92Z" fill="#f2ece9"/><path d="M12.31,10.41a3.65,3.65,0,0,0-1.47-.26c-.33,0-.62,0-.85,0a2.59,2.59,0,0,0-.52,0v4.31l.49,0h.66a4.39,4.39,0,0,0,1.44-.23,2.15,2.15,0,0,0,1-.68,2,2,0,0,0,.38-1.32,2.08,2.08,0,0,0-.28-1.14A1.8,1.8,0,0,0,12.31,10.41Z" fill="#f2ece9"/></svg>