<svg id="svg2" xmlns="http://www.w3.org/2000/svg" width="10.58mm" height="10.58mm" viewBox="0 0 30 30"><g id="g4"><g id="g6"><path id="path8" d="M2.38,10.65H6.83a3.39,3.39,0,0,1,2.84,1.13,3.73,3.73,0,0,1,.6,3,5.58,5.58,0,0,1-.5,1.71A5.05,5.05,0,0,1,8.7,18a3.91,3.91,0,0,1-1.78,1.09,8.44,8.44,0,0,1-2,.22h-2l-.62,3.14H0L2.38,10.65m1.94,1.87-1,5c.06,0,.12,0,.19,0h.22a9.61,9.61,0,0,0,2.66-.31c.72-.22,1.19-1,1.44-2.4.18-1.16,0-1.81-.6-2A7.63,7.63,0,0,0,5,12.55c-.12,0-.25,0-.38,0s-.25,0-.34-.07h0" fill="#f2ece9"/><path id="path10" d="M12.87,7.51h2.28l-.65,3.14h2.06a4.37,4.37,0,0,1,2.54.69c.56.44.72,1.28.5,2.52l-1.13,5.49H16.15l1.07-5.27a1.6,1.6,0,0,0-.09-1.18A1.51,1.51,0,0,0,16,12.55l-1.85,0-1.35,6.79H10.49l2.38-11.8" fill="#f2ece9"/><path id="path12" d="M22,10.65h4.45a3.42,3.42,0,0,1,2.85,1.13,3.77,3.77,0,0,1,.59,3,5.58,5.58,0,0,1-.5,1.71A5.05,5.05,0,0,1,28.36,18a3.91,3.91,0,0,1-1.78,1.09,8.44,8.44,0,0,1-2,.22h-2L22,22.49H19.66L22,10.65M24,12.52l-1,5c.06,0,.12,0,.19,0h.22a9.61,9.61,0,0,0,2.66-.31c.72-.22,1.19-1,1.44-2.4.19-1.16,0-1.81-.6-2a7.63,7.63,0,0,0-2.19-.25c-.12,0-.25,0-.37,0s-.25,0-.35-.07h0" fill="#f2ece9"/></g></g></svg>