<svg id="Layer_1" data-name="Layer 1" xmlns="http://www.w3.org/2000/svg" width="10.58mm" height="10.58mm" viewBox="0 0 30 30"><g id="Layer_2" data-name="Layer 2"><g id="Layer_2-2" data-name="Layer 2-2"><path d="M30,15c0-2-2.49-3.86-6.3-5,.88-3.89.49-7-1.24-8a2.67,2.67,0,0,0-1.36-.34h0c-1.68,0-3.88,1.2-6.1,3.28-2.23-2.07-4.43-3.25-6.11-3.25h0A2.68,2.68,0,0,0,7.5,2C5.79,3,5.4,6.1,6.29,10,2.49,11.15,0,13,0,15s2.49,3.87,6.3,5c-.88,3.88-.49,7,1.24,8a2.68,2.68,0,0,0,1.37.34c1.68,0,3.88-1.2,6.1-3.28,2.23,2.07,4.43,3.25,6.11,3.25A2.67,2.67,0,0,0,22.51,28c1.72-1,2.1-4.07,1.22-7.95C27.51,18.86,30,17,30,15ZM21.09,3h0a1.38,1.38,0,0,1,.69.16c.83.48,1.19,2.29.91,4.63a15.65,15.65,0,0,1-.31,1.79,28.33,28.33,0,0,0-3.88-.66A29.87,29.87,0,0,0,16,5.88C18,4,19.81,3,21.09,3ZM9.59,18.13c.28.49.58,1,.88,1.43-.87-.13-1.71-.29-2.51-.48.23-.79.51-1.6.83-2.42C9,17.15,9.3,17.64,9.59,18.13Zm-1.65-7.2c.8-.19,1.65-.36,2.52-.49-.3.48-.6,1-.88,1.45s-.54,1-.79,1.47C8.46,12.54,8.18,11.72,7.94,10.93ZM9.5,15c.38-.82.81-1.64,1.27-2.44s1-1.6,1.47-2.33q1.37-.12,2.76-.12c.93,0,1.85,0,2.75.11.51.73,1,1.5,1.48,2.33s.89,1.61,1.27,2.43c-.39.82-.81,1.63-1.27,2.43s-1,1.61-1.47,2.34q-1.36.12-2.76.12c-.93,0-1.85,0-2.75-.12-.51-.72-1-1.5-1.48-2.32S9.88,15.84,9.5,15Zm10.91,3.09c.28-.49.55-1,.8-1.47.33.82.61,1.64.84,2.43-.8.2-1.64.36-2.52.49.3-.47.6-.95.88-1.45Zm0-6.24c-.28-.48-.58-1-.88-1.43.87.13,1.7.29,2.5.49a24.49,24.49,0,0,1-.82,2.41c-.25-.49-.52-1-.8-1.47ZM16.68,8.8c-.55,0-1.11,0-1.68,0s-1.14,0-1.7,0q.79-1,1.68-2a24.21,24.21,0,0,1,1.7,2ZM8.18,3.2a1.35,1.35,0,0,1,.7-.15h0C10.15,3,12,4.05,14,5.89a27.48,27.48,0,0,0-2.53,3.05,26.9,26.9,0,0,0-3.88.67,18,18,0,0,1-.32-1.77C7,5.5,7.36,3.69,8.18,3.2ZM6.64,18.72a17.94,17.94,0,0,1-1.71-.63C2.77,17.17,1.37,16,1.37,15s1.4-2.17,3.56-3.09c.53-.22,1.1-.43,1.69-.62A30.89,30.89,0,0,0,8,15,28.23,28.23,0,0,0,6.64,18.72ZM8.91,27a1.49,1.49,0,0,1-.69-.16c-.83-.48-1.19-2.3-.91-4.63a15.81,15.81,0,0,1,.31-1.8,30,30,0,0,0,3.88.67A32.2,32.2,0,0,0,14,24.13C12.05,26,10.18,27,8.91,27ZM15,23.16a24.62,24.62,0,0,1-1.7-2c.55,0,1.12.05,1.68.05s1.15,0,1.7-.05A20.92,20.92,0,0,1,15,23.16Zm6.81,3.64a1.34,1.34,0,0,1-.7.16C19.85,27,18,26,16,24.11a27.48,27.48,0,0,0,2.53-3.05,26.9,26.9,0,0,0,3.88-.67,15.44,15.44,0,0,1,.32,1.78C23,24.5,22.64,26.32,21.82,26.8Zm3.24-8.71a17.52,17.52,0,0,1-1.69.62A29.09,29.09,0,0,0,22,15a28.72,28.72,0,0,0,1.35-3.7c.61.19,1.18.4,1.72.62,2.16.92,3.56,2.13,3.56,3.09S27.23,17.18,25.06,18.09Z" fill="#f2ece9"/><circle cx="14.99" cy="15" r="2.79" fill="#f2ece9"/></g></g></svg>