<svg id="Layer_1" data-name="Layer 1" xmlns="http://www.w3.org/2000/svg" width="10.58mm" height="10.58mm" viewBox="0 0 30 30"><path d="M30,5.7a12.29,12.29,0,0,1-3.54,1,6.18,6.18,0,0,0,2.71-3.41,12.3,12.3,0,0,1-3.92,1.49A6.15,6.15,0,0,0,14.61,9a6.46,6.46,0,0,0,.16,1.4A17.42,17.42,0,0,1,2.08,3.93,6.14,6.14,0,0,0,4,12.15a6.13,6.13,0,0,1-2.79-.78v.08a6.16,6.16,0,0,0,4.93,6,6.09,6.09,0,0,1-1.62.21,6.34,6.34,0,0,1-1.16-.1,6.17,6.17,0,0,0,5.76,4.28,12.35,12.35,0,0,1-7.64,2.63A11.85,11.85,0,0,1,0,24.43,17.42,17.42,0,0,0,9.44,27.2C20.76,27.2,27,17.82,27,9.68c0-.27,0-.52,0-.79A12.57,12.57,0,0,0,30,5.7" fill="#f2ece9"/></svg>