<svg id="Layer_1" data-name="Layer 1" xmlns="http://www.w3.org/2000/svg" width="10.58mm" height="10.58mm" viewBox="0 0 30 30"><path d="M15,2.1a12.86,12.86,0,0,1,8.72,3.4,2.13,2.13,0,0,0-2.3,2.17c-.09,3.09,3.71,3.75,1.66,10l-1.69,5.16L16.78,9.23c-.07-.21,0-.33.27-.33h1.3a.13.13,0,0,0,.13-.13V8a.13.13,0,0,0-.13-.13Q14.65,8,11,7.87a.12.12,0,0,0-.12.13v.77A.13.13,0,0,0,11,8.9H12.3c.29,0,.38.1.44.28l1.9,5.18L11.79,23,7.11,9.17c-.06-.17,0-.27.18-.27H8.78a.13.13,0,0,0,.13-.13V8a.13.13,0,0,0-.13-.13C7.22,8,5.64,8,4.18,8A12.89,12.89,0,0,1,15,2.1ZM26.34,8.86a12.91,12.91,0,0,1-5.15,17.45l4-11.39a18.08,18.08,0,0,0,1.13-6.06Zm-7,18.28a12.75,12.75,0,0,1-4.31.74,12.93,12.93,0,0,1-3.75-.55l4-11.39,4.08,11.2Zm-9.82-.49A12.9,12.9,0,0,1,2.11,15,12.75,12.75,0,0,1,3.27,9.65l6.22,17ZM15,.9A14.1,14.1,0,1,1,.9,15,14.1,14.1,0,0,1,15,.9ZM15,0A15,15,0,1,1,0,15,15,15,0,0,1,15,0Z" fill="#f2ece9" fill-rule="evenodd"/></svg>