<svg id="Layer_1" data-name="Layer 1" xmlns="http://www.w3.org/2000/svg" width="10.58mm" height="10.58mm" viewBox="0 0 30 30"><path d="M22,13.12a3,3,0,0,0-1.41.33A2.65,2.65,0,0,0,19.13,16a3.55,3.55,0,0,0,.21,1.32,2.52,2.52,0,0,0,.56.91,2.17,2.17,0,0,0,.85.51,3.38,3.38,0,0,0,1,.17c.19,0,.36,0,.52,0a1.12,1.12,0,0,0,.45-.06V13.21a1.94,1.94,0,0,0-.33-.07Z" fill="#f2ece9"/><path d="M24.67,0H5.31A5.38,5.38,0,0,0,0,5.45v19.1A5.38,5.38,0,0,0,5.31,30H24.67A5.38,5.38,0,0,0,30,24.55V5.45A5.38,5.38,0,0,0,24.67,0ZM16,21.12c0,.05-.06,0-.14,0H13c-.2,0-.33,0-.42-.14-.26-.54-.54-1.06-.8-1.6s-.55-1.07-.85-1.62l-.9-1.66h0c-.26.55-.55,1.1-.83,1.65s-.58,1.1-.85,1.64L7.5,21c0,.12-.15.14-.29.14H4.46s-.09,0-.09,0a.17.17,0,0,1,0-.14l3.88-6.54L4.5,7.87s0-.1,0-.13a.19.19,0,0,1,.13,0H7.43a.84.84,0,0,1,.18,0,.25.25,0,0,1,.12.11c.24.55.52,1.11.8,1.66s.59,1.09.9,1.63.58,1.07.84,1.62h0c.27-.56.54-1.11.82-1.65S11.67,10,12,9.47s.56-1.09.83-1.61a.29.29,0,0,1,.08-.13.22.22,0,0,1,.16,0h2.64a.1.1,0,0,1,.13.08s0,.07,0,.09L12,14.23,16,21A.29.29,0,0,1,16,21.12Zm9.46-.5a9.59,9.59,0,0,1-2,.61,10.32,10.32,0,0,1-1.92.18,6.09,6.09,0,0,1-2.69-.58A4.38,4.38,0,0,1,17,19.09a5.59,5.59,0,0,1-.69-2.92A5.31,5.31,0,0,1,19,11.47a6.29,6.29,0,0,1,3.16-.74h.27a3.67,3.67,0,0,0,.38,0v-4c0-.09,0-.14.13-.14h2.53a.11.11,0,0,1,.13.09V18.9c0,.23,0,.48,0,.77s0,.52.05.74A.21.21,0,0,1,25.5,20.62Z" fill="#f2ece9"/></svg>